<?xml version="1.0" encoding="UTF-8"?>
<svg width="201px" height="195px" viewBox="0 0 201 195" version="1.1" xmlns="http://www.w3.org/2000/svg" xmlns:xlink="http://www.w3.org/1999/xlink">
    <!-- Generator: Sketch 57.1 (83088) - https://sketch.com -->
    <title>wizfish logo copy</title>
    <desc>Created with Sketch.</desc>
    <defs>
        <radialGradient cx="55.2875569%" cy="63.2280972%" fx="55.2875569%" fy="63.2280972%" r="150.390845%" gradientTransform="translate(0.552876,0.632281),scale(0.957480,1.000000),rotate(95.495796),translate(-0.552876,-0.632281)" id="radialGradient-1">
            <stop stop-color="#008CCD" offset="0%"></stop>
            <stop stop-color="#03102A" offset="100%"></stop>
        </radialGradient>
        <radialGradient cx="45.6476005%" cy="50%" fx="45.6476005%" fy="50%" r="111.377501%" gradientTransform="translate(0.456476,0.500000),scale(1.000000,0.558165),rotate(87.760431),translate(-0.456476,-0.500000)" id="radialGradient-2">
            <stop stop-color="#EC9B2D" offset="0%"></stop>
            <stop stop-color="#E04B20" offset="100%"></stop>
        </radialGradient>
        <radialGradient cx="36.9893364%" cy="32.6868163%" fx="36.9893364%" fy="32.6868163%" r="93.30168%" gradientTransform="translate(0.369893,0.326868),scale(1.000000,0.928538),rotate(90.000000),translate(-0.369893,-0.326868)" id="radialGradient-3">
            <stop stop-color="#FE832B" offset="0%"></stop>
            <stop stop-color="#DE3D16" offset="100%"></stop>
        </radialGradient>
        <radialGradient cx="66.9107487%" cy="71.7072846%" fx="66.9107487%" fy="71.7072846%" r="87.2682059%" gradientTransform="translate(0.669107,0.717073),scale(0.790777,1.000000),rotate(70.473915),translate(-0.669107,-0.717073)" id="radialGradient-4">
            <stop stop-color="#EB972C" offset="0%"></stop>
            <stop stop-color="#E64E1B" offset="100%"></stop>
        </radialGradient>
    </defs>
    <g id="Page-1" stroke="none" stroke-width="1" fill="none" fill-rule="evenodd">
        <g id="wizfish-logo-copy" transform="translate(-7.000000, 1.000000)">
            <g id="hat" transform="translate(11.146733, 0.000000)" stroke="#000000">
                <path d="M101.853267,27.0686069 C108.853267,34.0686069 109.126561,40.4253486 112.853267,47.0686069 C115.337738,51.4974458 117.004404,56.4974458 117.853267,62.0686069 C112.519934,61.4019403 108.519934,61.0686069 105.853267,61.0686069 C103.970034,61.0686069 96.3913707,59.3808753 89.8532671,51.0686069 C88.0400139,48.7633136 85.3733473,44.0966469 81.8532671,37.0686069 C85.0960773,43.566814 87.762744,48.2334807 89.8532671,51.0686069 C94.8242961,57.8102183 101.451615,63.5226224 103.853267,68.0686069 C107.76991,75.482253 109.76991,82.8155864 109.853267,90.0686069 C112.567826,89.2652061 114.567826,89.2652061 115.853267,90.0686069 C117.781429,91.2737082 118.853267,93.0686069 117.853267,95.0686069 C116.853267,97.0686069 105.853267,106.068607 94.8532671,108.068607 C83.8532671,110.068607 72.4745936,113.992201 61.8532671,113.068607 C38.8532671,111.068607 27.8532671,105.068607 18.8532671,100.068607 C9.85326711,95.0686069 13.8532671,94.0686069 4.85326711,91.0686069 C-4.14673289,88.0686069 0.857226983,78.9431119 7.85326711,78.0686069 C12.5172939,77.4856036 17.8506272,80.1522702 23.8532671,86.0686069 C24.5565353,76.2588703 25.5565353,70.2588703 26.8532671,68.0686069 C28.489747,65.3044873 31.1564137,63.3044873 34.8532671,62.0686069 C33.1049078,54.6911459 33.7715744,48.6911459 36.8532671,44.0686069 C38.1866004,42.0686069 41.1866004,39.4019403 45.8532671,36.0686069 C44.0143804,34.1371203 43.6810471,31.803787 44.8532671,29.0686069 C50.8532671,15.0686069 58.3840507,1.50225897 69.8532671,0.0686069237 C81.3224835,-1.36504512 94.8532671,20.0686069 101.853267,27.0686069 Z" id="hat-vector" fill="url(#radialGradient-1)"></path>
                <path d="M23.8532671,86.0686069 C29.1866004,92.0686069 40.8532671,96.0686069 58.8532671,98.0686069 C76.8532671,100.068607 93.8532671,97.4019403 109.853267,90.0686069" id="hat-brim"></path>
                <polygon id="Star" fill="#F8E71C" transform="translate(63.191824, 19.875332) rotate(16.000000) translate(-63.191824, -19.875332) " points="63.336581 25.2363846 55.2365005 29.6396442 58.1133474 21.5326256 51.9288522 18.1045039 60.1702205 17.8219284 63.0470675 9.71490976 66.4890653 18.0906277 74.4547963 16.8467905 69.7897755 22.3456614 71.9948744 30.035755"></polygon>
                <polygon id="Star-Copy-4" fill="#F8E71C" transform="translate(98.003455, 37.778280) rotate(-23.000000) translate(-98.003455, -37.778280) " points="98.0298519 42.4503259 92.3941768 45.4899256 93.695028 40.2277623 89.8579541 33.5497592 95.3809833 35.894146 97.5863274 28.139376 99.8444649 35.6160608 106.148956 36.1194378 101.96356 40.8610047 104.612428 47.4171846"></polygon>
                <polygon id="Star-Copy-3" fill="#F8E71C" transform="translate(42.074808, 69.107832) rotate(15.000000) translate(-42.074808, -69.107832) " points="39.9881624 73.7674428 33.7443197 77.5110278 35.0626095 71.6208131 32.6396932 69.5248021 37.4693223 68.2307069 40.5311845 59.4984739 43.7825154 68.6096443 51.509922 66.5390919 45.9997595 71.6208131 48.5613765 78.7171903"></polygon>
                <polygon id="Star-Copy-2" fill="#F8E71C" transform="translate(78.132197, 85.295243) rotate(-21.000000) translate(-78.132197, -85.295243) " points="78.9619141 90.7267066 71.2102238 94.1779815 74.0771674 86.7093381 68.4756849 84.5591304 75.5106392 82.9750163 77.8822509 76.0632552 80.1785414 84.7668561 87.7887082 84.4746905 83.3508258 88.1855945 86.0721896 94.5272306"></polygon>
                <polygon id="Star-Copy" fill="#F8E71C" transform="translate(74.212723, 51.678062) rotate(-15.000000) translate(-74.212723, -51.678062) " points="73.7262292 57.3591651 66.6054344 59.3615027 69.3830935 52.858841 64.8816338 46.4762976 70.9360078 47.063286 73.4548479 41.5265501 77.1059944 47.8618258 81.8200109 48.9443697 79.1948041 53.7315043 83.5438115 61.8295748"></polygon>
            </g>
            <g id="fishy" transform="translate(0.000000, 16.152280)">
                <path d="M113.73409,76.4471279 C118.494447,85.529745 124.404039,127.386872 124.153689,131.082919 C123.76457,136.827694 122.503469,145.18034 119.419334,154.129328 C118.935458,155.533353 118.406708,156.952057 117.82941,158.377672 C114.324712,167.032395 108.902379,174.716787 107.14184,176.674552 C103.242913,181.010261 89.6104617,198.734715 72.4860172,187.256326 C66.8026943,183.446837 57.4979441,179.053459 51.4350639,175.014702 C45.6779687,171.179642 41.7400566,166.963829 40.2003825,164.681168 C37.8279279,161.163859 58.8971775,143.774553 62.3111767,119.061953 C65.7251758,94.3493525 61.0537274,67.8816946 56.7180185,63.982768 C54.3522075,61.8552906 59.0207978,58.7146928 59.7985446,53.375678 C60.4461373,48.9301349 56.9110888,42.1299395 58.1617438,40.8329158 C58.9028624,40.06432 63.3602713,39.9588699 68.1688247,41.7593786 C81.2202396,46.6463342 107.789163,65.1043841 113.73409,76.4471279 Z" id="fish-vector" stroke="#000000" fill="url(#radialGradient-2)" transform="translate(82.087985, 115.685526) rotate(79.000000) translate(-82.087985, -115.685526) "></path>
                <path d="M55.5,126.916327 C57.4329966,126.916327 60,123.334605 60,118.916327 C60,114.498049 57.4329966,110.916327 55.5,110.916327 C53.5670034,110.916327 52,114.498049 52,118.916327 C52,123.334605 53.5670034,126.916327 55.5,126.916327 Z" id="eye" stroke="#000000" fill="#000000"></path>
                <path d="M13.3125,125.916327 C14.0373737,125.916327 15,124.797038 15,123.416327 C15,122.035615 14.0373737,120.916327 13.3125,120.916327 C12.5876263,120.916327 12,122.035615 12,123.416327 C12,124.797038 12.5876263,125.916327 13.3125,125.916327 Z" id="nose" fill="#000000" transform="translate(13.500000, 123.416327) scale(-1, -1) rotate(30.000000) translate(-13.500000, -123.416327) "></path>
                <path d="M162.881033,56.752306 C163.476149,58.9077263 167.632956,33.6347969 189.261173,26.2713576 C203.679984,21.3623981 219.933487,21.9781824 238.021682,28.1187105 C230.222663,28.3186548 225.168678,30.1780182 222.859726,33.6968006 C221.072238,36.4208862 212.444355,46.4551018 215.431281,53.8417304 C219.819138,64.6928459 219.202907,76.1859846 209.640156,83.2774718 C198.343954,91.6544405 184.741301,89.9974528 168.832197,78.3065086 C172.651611,95.5005278 171.588739,106.77406 165.64358,112.127105 C156.725842,120.156672 148.326204,118.300311 144.314423,127.295066 C141.639902,133.291569 143.871338,140.25326 151.008731,148.180138 C142.931823,149.173 135.572387,145.482948 128.930424,137.109982 C126.283809,133.773617 121.58809,125.781282 121.640556,114.06949 C121.677369,106.0187 122.455155,98.5344605 125.501749,94.4456626 C128.548342,90.3568648 143.080659,75.8896869 148.613253,72.2903384 C155.46749,67.8311658 158.078993,69.2934543 164.740396,61.8062913 C167.981379,58.1635503 162.739151,56.2384308 162.881033,56.752306 Z" id="tail" stroke="#000000" fill="url(#radialGradient-3)" transform="translate(179.831119, 85.669008) rotate(312.000000) translate(-179.831119, -85.669008) "></path>
                <path d="M93.6630573,166.461163 C88.5623248,163.956511 86.752771,162.293619 84.3602489,158.747872 C81.9677268,155.202124 78.9699013,149.248065 78.1787353,143.025661 C77.3875693,136.803257 79.4792962,130.152882 79.4792962,128.855757 C79.4792962,128.619931 80.1647572,133.640443 85.0449167,135.097 C89.9250762,136.553556 102.315461,135.260297 108.908106,136.803257 C112.015019,137.530406 121.667044,139.951482 125.609603,142.06233 C129.552161,144.173179 131.368251,146.576256 133.988927,151.34316 C136.609603,156.110065 136.261373,166.129574 137.207982,170.62537 C138.15459,175.121166 139.428272,173.894222 138.787234,176.051901 C138.146196,178.20958 120.465958,176.416784 115.988927,175.027449 C111.511896,173.638113 98.7637898,168.965814 93.6630573,166.461163 Z" id="fin-top-copy" stroke="#000000" fill="url(#radialGradient-4)" transform="translate(108.480327, 152.950875) scale(-1, -1) translate(-108.480327, -152.950875) "></path>
                <path d="M54,108.916327 C55.3333333,108.24966 57,108.24966 59,108.916327 C61,109.582993 62.6666667,111.916327 64,115.916327" id="eyebrow" stroke="#000000"></path>
                <path d="M30,147.916327 C30.7752981,148.722502 31.4419648,149.055835 32,148.916327 C32.5580352,148.776818 33.2247019,148.110151 34,146.916327" id="mouth" stroke="#000000" stroke-width="2"></path>
            </g>
        </g>
    </g>
</svg>